<svg xmlns="http://www.w3.org/2000/svg" xml:space="preserve" viewBox="10 296.25 980.02 407.48"><path d="M10 497.02v200.75h104.2v-401.5H10v200.75zM143.32 497.02v200.75H235.27l.15-129.19c.15-70.95.46-127.96.77-126.73.31 1.23 8.58 57.77 18.24 125.66 9.65 67.89 17.93 124.89 18.39 126.73.77 3.52.92 3.52 32.95 3.52s32.18 0 32.79-3.52c.46-1.84 5.36-37.24 10.88-78.46 5.36-41.38 13.18-99.61 17.16-129.49l7.36-54.4.46 133.02.31 132.86 45.67-.31 45.51-.46V297.04l-67.73-.46-67.89-.31-.77 3.37c-.31 1.99-5.52 42.14-11.49 89.34-13.03 102.83-11.49 92.56-12.57 89.65-.61-1.23-6.59-42.3-13.49-91.18s-12.87-89.34-13.33-90.1c-.31-.61-30.96-1.07-68.04-1.07h-67.27v200.74zM495.79 497.18v200.9l87.04-.77c75.24-.46 88.42-.92 98.38-3.22 29.42-6.74 45.51-21.45 51.95-47.35 3.07-12.87 4.75-58.69 4.6-139.76 0-87.66-1.69-136.54-5.21-149.87-8.28-31.42-31.57-50.26-69.42-56.09-19.62-3.06-60.07-4.75-114.01-4.75h-53.33v200.91zm127.34-127.96c9.66 4.9 9.5 4.29 10.27 103.29.61 93.48-.77 134.7-4.75 144.51-2.91 6.59-9.19 10.27-20.38 11.34l-8.28.92v-264.5l9.2.92c5.05.61 11.34 2.14 13.94 3.52zM760.9 497.02v200.75H854.23l1.69-6.13c.77-3.37 2.3-9.04 3.22-12.41l1.69-6.44 4.44 5.52c5.83 7.05 22.99 18.39 32.79 21.76 24.06 8.12 52.87 2.45 71.57-14.41 9.35-8.43 14.1-16.55 17.62-30.04 2.61-9.81 2.76-20.38 2.76-129.49V407.37l-4.14-8.89c-8.43-17.93-20.23-27.74-39.54-32.64-13.49-3.37-34.94-3.37-47.2.15-10.27 2.91-23.6 10.73-32.33 18.85-2.76 2.76-5.36 4.9-5.67 4.9-.31 0-.61-21-.61-46.74v-46.74h-99.6v200.76zm120.14-74.47c9.19 3.83 9.19 3.37 9.81 99.76.31 49.19-.15 93.63-.92 101.91-1.38 12.87-1.99 14.86-5.52 17.93-5.21 4.44-11.95 4.44-17.01 0-6.59-5.67-7.05-15.17-6.59-116.92.46-100.99.46-100.07 8.73-103.13 5.53-2.01 5.68-2.01 11.5.45z"/></svg>