<?xml version="1.0" encoding="UTF-8" standalone="no"?>
<!-- Uploaded to: SVG Repo, www.svgrepo.com, Transformed by: SVG Repo Mixer Tools -->

<svg
   fill="#ffffff"
   height="798.23999"
   width="800"
   version="1.1"
   id="Layer_1"
   viewBox="0 0 310 309.318"
   xml:space="preserve"
   sodipodi:docname="f8084fd92b0f2d4f8322e7d55f3e3c84.svg"
   xmlns:inkscape="http://www.inkscape.org/namespaces/inkscape"
   xmlns:sodipodi="http://sodipodi.sourceforge.net/DTD/sodipodi-0.dtd"
   xmlns="http://www.w3.org/2000/svg"
   xmlns:svg="http://www.w3.org/2000/svg"><defs
   id="defs12" /><sodipodi:namedview
   id="namedview10"
   pagecolor="#ffffff"
   bordercolor="#666666"
   borderopacity="1.0"
   inkscape:pageshadow="2"
   inkscape:pageopacity="0.0"
   inkscape:pagecheckerboard="0" />

<g
   id="SVGRepo_bgCarrier"
   stroke-width="0"
   transform="translate(0,-0.341)" />

<g
   id="SVGRepo_tracerCarrier"
   stroke-linecap="round"
   stroke-linejoin="round"
   transform="translate(0,-0.341)" />

<g
   id="SVGRepo_iconCarrier"
   transform="translate(0,-0.341)"> <g
   id="XMLID_801_"> <path
   id="XMLID_802_"
   d="M 72.16,99.73 H 9.927 c -2.762,0 -5,2.239 -5,5 v 199.928 c 0,2.762 2.238,5 5,5 H 72.16 c 2.762,0 5,-2.238 5,-5 V 104.73 c 0,-2.761 -2.238,-5 -5,-5 z" /> <path
   id="XMLID_803_"
   d="M 41.066,0.341 C 18.422,0.341 0,18.743 0,41.362 0,63.991 18.422,82.4 41.066,82.4 63.692,82.4 82.099,63.99 82.099,41.362 82.1,18.743 63.692,0.341 41.066,0.341 Z" /> <path
   id="XMLID_804_"
   d="m 230.454,94.761 c -24.995,0 -43.472,10.745 -54.679,22.954 V 104.73 c 0,-2.761 -2.238,-5 -5,-5 h -59.599 c -2.762,0 -5,2.239 -5,5 v 199.928 c 0,2.762 2.238,5 5,5 h 62.097 c 2.762,0 5,-2.238 5,-5 V 205.74 c 0,-33.333 9.054,-46.319 32.29,-46.319 25.306,0 27.317,20.818 27.317,48.034 v 97.204 c 0,2.762 2.238,5 5,5 H 305 c 2.762,0 5,-2.238 5,-5 V 194.995 C 310,145.43 300.549,94.761 230.454,94.761 Z" /> </g> </g>

</svg>
