<?xml version="1.0" standalone="no"?>
<!DOCTYPE svg PUBLIC "-//W3C//DTD SVG 20010904//EN"
 "http://www.w3.org/TR/2001/REC-SVG-20010904/DTD/svg10.dtd">
<svg version="1.0" xmlns="http://www.w3.org/2000/svg"
 width="300.000000pt" height="283.000000pt" viewBox="0 0 300.000000 283.000000"
 preserveAspectRatio="xMidYMid meet">
<metadata>
Created by potrace 1.10, written by Peter Selinger 2001-2011
</metadata>
<g transform="translate(0.000000,283.000000) scale(0.100000,-0.100000)"
fill="#000000" stroke="none">
<path d="M1268 1842 c40 -21 69 -41 65 -45 -4 -5 1 -5 10 -1 10 4 17 2 15 -4
-2 -5 112 -86 252 -179 300 -199 280 -186 280 -176 0 4 -67 52 -149 106 -81
54 -148 104 -148 112 0 19 1 18 37 0 17 -9 30 -13 30 -10 0 2 -45 28 -101 55
-55 28 -98 46 -94 41 8 -14 -1 -14 -26 0 -11 5 -17 14 -14 19 4 6 -1 7 -11 3
-12 -4 -15 -3 -10 5 4 7 -29 29 -93 62 -56 27 -104 50 -108 50 -5 -1 25 -18
65 -38z m272 -142 c30 -16 51 -29 45 -29 -5 0 -35 13 -65 29 -30 16 -50 29
-45 29 6 0 35 -13 65 -29z"/>
<path d="M1713 1605 c0 -7 7 -11 15 -7 10 3 13 1 8 -6 -4 -7 9 -19 35 -32 22
-12 38 -17 34 -11 -9 16 1 14 45 -9 22 -11 40 -18 40 -15 0 3 -40 25 -88 49
-58 29 -89 40 -89 31z"/>
<path d="M1946 1488 c5 -7 2 -9 -7 -6 -10 4 -14 -2 -14 -22 -1 -25 1 -27 22
-17 17 8 20 13 11 19 -11 6 -10 10 0 17 11 7 10 9 -3 14 -11 5 -14 3 -9 -5z"/>
</g>
</svg>
