<?xml version="1.0" standalone="no"?>
<!DOCTYPE svg PUBLIC "-//W3C//DTD SVG 20010904//EN"
 "http://www.w3.org/TR/2001/REC-SVG-20010904/DTD/svg10.dtd">
<svg version="1.0" xmlns="http://www.w3.org/2000/svg"
 width="100.000000pt" height="100.000000pt" viewBox="0 0 100.000000 100.000000"
 preserveAspectRatio="xMidYMid meet">

<g transform="translate(0.000000,100.000000) scale(0.100000,-0.100000)"
fill="#000000" stroke="none">
<path d="M162 800 c-85 -20 -106 -80 -106 -300 0 -244 23 -292 146 -305 35 -4
194 -5 353 -3 316 3 323 4 361 63 41 62 41 428 0 490 -39 60 -41 60 -396 62
-179 1 -340 -2 -358 -7z m371 -230 c59 -30 107 -57 107 -60 0 -5 -214 -120
-224 -120 -3 0 -6 54 -6 121 0 66 4 119 9 117 4 -1 56 -28 114 -58z"/>
</g>
</svg>
